<?xml version="1.0" encoding="UTF-8" standalone="no"?>
<svg
   xmlns:dc="http://purl.org/dc/elements/1.1/"
   xmlns:cc="http://creativecommons.org/ns#"
   xmlns:rdf="http://www.w3.org/1999/02/22-rdf-syntax-ns#"
   xmlns:svg="http://www.w3.org/2000/svg"
   xmlns="http://www.w3.org/2000/svg"
   xmlns:xlink="http://www.w3.org/1999/xlink"
   id="svg176"
   xml:space="preserve"
   style="enable-background:new 0 0 800 800;"
   viewBox="0 0 800 800"
   y="0px"
   x="0px"
   version="1.1"><metadata
     id="metadata182"><rdf:RDF><cc:Work
         rdf:about=""><dc:format>image/svg+xml</dc:format><dc:type
           rdf:resource="http://purl.org/dc/dcmitype/StillImage" /></cc:Work></rdf:RDF></metadata><defs
     id="defs180" /><style
     id="style2"
     type="text/css">
	.st0{fill:none;}
	.st1{fill:#4ABBBD;}
	.st2{display:none;}
	.st3{display:inline;}
	.st4{fill:#44BABC;}
	.st5{fill:#FFFFFF;}
	.st6{display:inline;fill:#4ABBBD;}
	.st7{display:inline;fill:#4ABBBD;stroke:#4BBBBC;stroke-miterlimit:10;}
	.st8{display:inline;fill:url(#SVGID_1_);}
	.st9{display:inline;fill:url(#SVGID_2_);}
	.st10{display:inline;fill:#4BBBBC;}
	.st11{fill:#4BBBBC;}
</style><pattern
     style="overflow:visible;"
     viewBox="0 -32.7 30.7 32.7"
     id="Nouvelle_nuance_de_motif_1"
     patternUnits="userSpaceOnUse"
     height="32.7"
     width="30.7"><g
       id="g8"><rect
         id="rect4"
         height="32.7"
         width="30.7"
         class="st0"
         y="-32.7" /><rect
         id="rect6"
         height="32.7"
         width="30.7"
         class="st1"
         y="-32.7"
         x="0" /></g></pattern><g
     class="st2"
     id="Calque_1"><g
       id="g15"
       class="st3"><path
         id="path11"
         d="M371.2,115.1c-76.6,0-138.7,50.7-138.7,113.3c0,40.2,25.6,75.4,64.3,95.6l-5.7,50.9l62.8-34.1    c5.7,0.6,11.5,0.9,17.4,0.9c76.6,0,138.7-50.7,138.7-113.3S447.9,115.1,371.2,115.1z"
         class="st4" /><path
         id="path13"
         d="M291.1,381.9c-1.4,0-2.8-0.4-3.9-1.2c-2.2-1.5-3.4-4-3.1-6.7l5.2-46.2c-40-22.5-63.8-59.4-63.8-99.5    c0-66.4,65.4-120.3,145.8-120.3c80.4,0,145.8,54,145.8,120.3s-65.4,120.3-145.8,120.3c-5.1,0-10.5-0.3-15.9-0.7L294.4,381    C293.4,381.6,292.2,381.9,291.1,381.9z M371.2,122.1c-72.6,0-131.6,47.6-131.6,106.2c0,36.2,22.6,69.6,60.5,89.3    c2.6,1.4,4.1,4.2,3.8,7.1l-4.2,37.4l50.9-27.7c1.3-0.7,2.7-1,4.1-0.8c5.7,0.6,11.3,0.9,16.7,0.9c72.6,0,131.6-47.6,131.6-106.2    C502.9,169.8,443.8,122.1,371.2,122.1z"
         class="st5" /></g><g
       id="g21"
       class="st3"><path
         id="path17"
         d="M543.6,300.8c0-30.9-30.6-55.9-68.4-55.9s-68.4,25-68.4,55.9s30.6,55.9,68.4,55.9c2.9,0,5.8-0.2,8.6-0.5    l31,16.8l-2.8-25.1C531,338,543.6,320.6,543.6,300.8z"
         class="st4" /><path
         id="path19"
         d="M514.7,380.1c-1.2,0-2.3-0.3-3.4-0.9l-29.1-15.8c-2.4,0.2-4.8,0.3-7.1,0.3c-41.6,0-75.5-28.2-75.5-62.9    s33.9-62.9,75.5-62.9s75.5,28.2,75.5,62.9c0,20.4-11.6,39.2-31.2,51l2.3,20.5c0.3,2.6-0.9,5.2-3.1,6.7    C517.5,379.7,516.1,380.1,514.7,380.1z M483.8,349.2c1.2,0,2.3,0.3,3.4,0.9l19,10.4l-1.3-11.6c-0.3-2.9,1.2-5.7,3.8-7.1    c17.5-9.1,27.9-24.4,27.9-40.9c0-26.9-27.5-48.8-61.3-48.8s-61.3,21.9-61.3,48.8c0,26.9,27.5,48.8,61.3,48.8    c2.5,0,5.1-0.1,7.9-0.4C483.3,349.2,483.5,349.2,483.8,349.2z"
         class="st5" /></g><path
       id="path23"
       d="M108.3,643.4c-7.6,0-13.8-5.4-14-12.2c-0.1-4-2.6-97.8,44.2-141c15.8-14.6,35.2-21.9,57.7-21.9   c104.6,0,119,155,119.5,161.6c0.6,6.9-5.2,13-13,13.5c-7.6,0.5-14.5-4.7-15.1-11.6c-0.1-1.4-12.8-138.3-91.5-138.3   c-14.9,0-27.1,4.7-37.6,14.3c-32.1,29.6-37.1,98.6-36.3,122.7c0.2,7-5.9,12.8-13.6,13C108.6,643.4,108.4,643.4,108.3,643.4z"
       class="st6" /><path
       id="path25"
       d="M184.1,445.9c-39.9,0-72.3-33.8-72.3-75.3s32.5-75.3,72.3-75.3c39.9,0,72.4,33.8,72.4,75.3   S224,445.9,184.1,445.9z M184.1,322.7c-24.4,0-44.2,21.5-44.2,47.9c0,26.4,19.8,47.9,44.2,47.9s44.2-21.5,44.2-47.9   C228.4,344.2,208.5,322.7,184.1,322.7z"
       class="st7" /><path
       id="path27"
       d="M691.7,642.3c7.6,0,13.8-5.4,14-12.2c0.1-4,2.6-97.8-44.2-141c-15.8-14.6-35.2-21.9-57.7-21.9   c-104.6,0-119,155-119.5,161.6c-0.6,6.9,5.2,13,13,13.5c7.6,0.5,14.5-4.7,15.1-11.6c0.1-1.4,12.8-138.3,91.5-138.3   c14.9,0,27.1,4.7,37.6,14.3c32.1,29.6,37.1,98.6,36.3,122.7c-0.2,7,5.9,12.8,13.6,13C691.4,642.3,691.6,642.3,691.7,642.3z"
       class="st6" /><path
       id="path29"
       d="M543.5,369.5c0-41.5,32.5-75.3,72.4-75.3c39.9,0,72.3,33.8,72.3,75.3s-32.5,75.3-72.3,75.3   C576,444.8,543.5,411,543.5,369.5z M571.6,369.5c0,26.4,19.8,47.9,44.2,47.9c24.4,0,44.2-21.5,44.2-47.9s-19.8-47.9-44.2-47.9   C591.5,321.6,571.6,343.1,571.6,369.5z"
       class="st7" /><circle
       id="circle31"
       r="56.2"
       cy="373.1"
       cx="184.1"
       class="st7" /><circle
       id="circle33"
       r="56.2"
       cy="370.6"
       cx="615.9"
       class="st7" /></g><g
     class="st2"
     id="Calque_2"><path
       id="path36"
       d="M406.8,627.9c-4.8,0-9.7-1.8-13.4-5.5l-149-146.6c-3-3-6.2-5.9-9.3-8.9c-17.5-16.5-37.2-35.2-45.2-62.6   c-6.2-21.2-7.1-44.4-2.5-67.1c7.8-38.8,33.4-76,65.3-94.8c22.4-13.2,49.9-15.8,71.5-16.6c20.2-0.7,38.2,2.4,53.5,9.3   c8.2,3.7,19.5,10.4,29.2,19.5c9.6-9.1,21-15.9,29.2-19.5c15.3-6.9,33.3-10,53.5-9.3c21.5,0.8,49.1,3.4,71.5,16.6   c31.9,18.8,57.5,56,65.3,94.8c4.5,22.7,3.7,45.8-2.5,67.1c-8,27.4-27.8,46.1-45.2,62.6c-3.1,3-6.3,5.9-9.3,8.9l-149,146.6   C416.4,626,411.6,627.9,406.8,627.9z M329.9,263.8c-1.4,0-2.9,0-4.4,0.1c-17,0.6-38.5,2.5-53.5,11.3   c-22.6,13.4-41.6,41.3-47.3,69.5c-3.3,16.6-2.7,33.5,1.8,48.9c5.1,17.5,19.5,31.2,34.8,45.6c3.3,3.1,6.6,6.3,9.8,9.4L406.8,582   l135.6-133.4c3.2-3.2,6.5-6.3,9.9-9.4c15.3-14.4,29.7-28.1,34.8-45.6c4.5-15.3,5.1-32.2,1.8-48.9c-5.6-28.2-24.6-56.1-47.3-69.4   c-15-8.8-36.4-10.7-53.5-11.3c-14.3-0.6-26.5,1.5-36.5,5.9c-12.8,5.8-25.2,17.5-25.9,22.6c-1.3,9.4-9.4,16.4-18.9,16.4c0,0,0,0,0,0   c-9.5,0-17.6-7-18.9-16.5c-0.7-5.2-13-16.8-25.9-22.6C353.1,265.8,342.3,263.8,329.9,263.8z"
       class="st6" /><polygon
       id="polygon38"
       points="387.9,521.5 362.9,451.4 330.2,451.4 315.1,410.9 303.1,451.4 248.8,451.4 248.8,435.8 291.5,435.8    313.3,361.7 341.1,435.8 373.9,435.8 388.6,477.1 423.4,388.7 451.2,447.6 471.6,447.6 471.6,463.2 441.3,463.2 424.7,428.1  "
       class="st6" /></g><g
     class="st2"
     id="Calque_3"><pattern
       patternTransform="matrix(1 0 0 1 -13.6667 -21.3333)"
       xlink:href="#Nouvelle_nuance_de_motif_1"
       id="SVGID_1_" /><path
       id="path42"
       d="M544.1,589.5L357.9,403.4c35.6-44.1,23.4-80.6,10.1-95.3l-84.7-84.7c-6.9-6.9-17.9-6.9-24.8,0   c-6.9,6.9-6.9,17.9,0,24.8l83.8,83.7c1.5,1.9,12.7,17.8-9.3,46.5L230.7,276.1c-6.9-6.9-17.9-6.9-24.8,0s-6.9,17.9,0,24.8   l102.3,102.3c-28.8,22.1-44.5,11-45.5,10.3L178,328.9c-6.9-6.9-17.9-6.9-24.8,0c-6.9,6.9-6.9,17.9,0,24.8l85.3,85.3   c7.2,6.5,20.1,12.8,36.8,12.8c16.3,0,36.1-6,57.8-23.5l186.1,186.1c3.4,3.4,7.9,5.1,12.4,5.1s9-1.7,12.4-5.1   C550.9,607.5,550.9,596.4,544.1,589.5z"
       class="st8" /><pattern
       patternTransform="matrix(1 0 0 1 -13.6667 -21.3333)"
       xlink:href="#Nouvelle_nuance_de_motif_1"
       id="SVGID_2_" /><path
       id="path45"
       d="M558.4,194.1L405,432.5l0.5,0.3l-97,150.9c-7.9,12.2-4.3,28.5,7.9,36.4c4.4,2.8,9.3,4.2,14.2,4.2   c8.6,0,17.1-4.3,22.1-12.1l97.1-150.9l21.7,13.9C471.4,475.2,629.8,232.9,558.4,194.1z"
       class="st9" /></g><g
     class="st2"
     id="Calque_4"><path
       id="path48"
       d="M524.4,619.5c-1.7,0-3.3-0.4-4.9-1.2c-16.7-9-31.1-34.8-37.2-47.1c-22.3,0.7-93.4,2.6-133.2-0.3   c-45.5-3.2-106.6-36.8-116-42.1l-15.9-4.4c-3.4-1-6.1-3.6-7.1-7.1l-2.9-10l-3.5-16.4c-0.1-0.4-0.1-0.8-0.2-1.2   c-0.1-1.5-3.4-36.7,0.1-61.8c3.3-23.8,32.8-113.2,36.7-124.9l6.9-73.9c0.4-4,3-7.4,6.8-8.7l35.1-12.4c1.1-0.4,2.3-0.6,3.4-0.6h28.7   c1.5,0,3,0.3,4.4,1l26.1,12.4c2.2,1,3.9,2.8,4.9,4.9c1.1,2.3,10.3,23.2,1,39.1c-3.6,6.1-11.3,13.6-27.5,14.8   c-7.1,0.5-12,2.6-14.4,6.1c-3.7,5.4-2,14.3-1.4,16.4c0.3,1,0.5,2,0.5,3l0.3,74c2.3,11.3,1.5,29.8,0,46.2   c12.4-8.1,34.9-8.8,60.3-9.6c15.5-0.5,33-1.1,40.3-3.9c19.3-7.6,53.6-6.4,67.9-5.5c1.4-2.3,3.5-5.7,6.3-10.6   c10.2-17.8,32.8-19.8,33.8-19.9c2.9-0.2,5.7,0.7,7.8,2.7c2.1,1.9,3.3,4.7,3.3,7.5v223.1c0,3.6-1.9,7-5,8.8   C528.1,619,526.2,619.5,524.4,619.5z M488.7,550.4c4,0,7.7,2.4,9.4,6.1c3.5,7.8,9.4,18.9,16,28.1V399.9c-2.6,1.4-5,3.4-6.5,6.1   c-7.5,13.1-10.3,16.8-11,17.6c-2.2,2.6-5.4,4-8.8,3.7c-12.5-1.1-48.6-2.6-64.7,3.7c-10.6,4.2-28.4,4.7-47.2,5.3   c-16,0.5-45.9,1.5-50.3,6.8c-0.2,0.4-0.4,0.6-0.7,1l-16.2,19.7c-2.9,3.6-7.9,4.8-12.1,2.9c-4.2-1.9-6.7-6.4-6-10.9   c2.3-15.2,7.6-57.9,4.1-73c-0.2-0.8-0.3-1.5-0.3-2.3l-0.3-73.7c-1.3-5.1-3.9-20.1,4.5-32.4c4.2-6.1,12.8-13.7,29.8-15   c5.9-0.4,9.7-2,11.3-4.7c2.5-4.2,1-11.8-0.7-16.9l-20.3-9.7h-24.6l-27.2,9.6l-6.4,68.6c-0.1,0.8-0.2,1.6-0.5,2.3   C251,336,226.6,411.7,224,430.8c-2.9,21.2-0.4,52,0,56.5l4.3,18.9l11.6,3.2c0.8,0.2,1.6,0.6,2.4,1c0.6,0.4,64.7,36.9,108.3,40   c45.5,3.2,136.9,0,137.8,0C488.5,550.4,488.6,550.4,488.7,550.4z M250.4,305.3h0.1H250.4z"
       class="st10" /><path
       id="path50"
       d="M404.8,487.4c-30.8,0-61.4-15.7-62.7-16.4c-5-2.6-7-8.8-4.4-13.8c2.6-5,8.8-7,13.8-4.4   c0.3,0.2,28.5,14.6,54.7,14.1c26.6-0.6,63.1-18.6,63.5-18.8c5.1-2.5,11.2-0.5,13.8,4.6c2.5,5.1,0.5,11.2-4.6,13.8   c-1.7,0.8-41.1,20.3-72.2,21C406,487.4,405.4,487.4,404.8,487.4z"
       class="st10" /></g><g
     class="st2"
     id="Calque_5"><path
       id="path53"
       d="M510,544.2c5.6,0,10.2-4,10.4-9c0.1-2.9,1.9-72.2-32.7-104.2c-11.7-10.8-26-16.2-42.7-16.2   c-77.3,0-87.9,114.5-88.3,119.4c-0.4,5.1,3.9,9.6,9.6,10c5.6,0.4,10.7-3.5,11.2-8.6c0.1-1,9.4-102.2,67.6-102.2   c11,0,20,3.5,27.8,10.6c23.7,21.9,27.4,72.8,26.8,90.6c-0.2,5.1,4.3,9.4,10.1,9.6C509.8,544.2,509.9,544.2,510,544.2z"
       class="st6" /><g
       id="g59"
       class="st3"><path
         id="path55"
         d="M410.6,351.2c0-25.7,20.1-46.6,44.7-46.6c24.7,0,44.7,20.9,44.7,46.6c0,25.7-20.1,46.6-44.7,46.6    C430.6,397.7,410.6,376.8,410.6,351.2z M428,351.2c0,16.3,12.3,29.6,27.3,29.6s27.3-13.3,27.3-29.6c0-16.3-12.3-29.6-27.3-29.6    S428,334.8,428,351.2z"
         class="st1" /><path
         id="path57"
         d="M455.3,402.4c-27.2,0-49.4-23-49.4-51.2c0-28.3,22.2-51.3,49.4-51.3c27.2,0,49.4,23,49.4,51.3    C504.7,379.4,482.5,402.4,455.3,402.4z M455.3,309.3c-22.1,0-40.1,18.8-40.1,41.9c0,23.1,18,41.9,40.1,41.9    c22.1,0,40.1-18.8,40.1-41.9C495.4,328.1,477.4,309.3,455.3,309.3z M455.3,385.4c-17.7,0-32-15.4-32-34.3    c0-18.9,14.4-34.3,32-34.3c17.7,0,32,15.4,32,34.3C487.3,370.1,473,385.4,455.3,385.4z M455.3,326.2c-12.5,0-22.7,11.2-22.7,24.9    c0,13.7,10.2,24.9,22.7,24.9c12.5,0,22.7-11.2,22.7-24.9C478,337.4,467.8,326.2,455.3,326.2z"
         class="st11" /></g><g
       id="g65"
       class="st3"><circle
         id="circle61"
         r="34.7"
         cy="351.8"
         cx="455.3"
         class="st1" /><path
         id="path63"
         d="M455.3,391.3c-21.7,0-39.4-17.7-39.4-39.4s17.7-39.4,39.4-39.4c21.7,0,39.4,17.7,39.4,39.4    S477,391.3,455.3,391.3z M455.3,321.8c-16.6,0-30.1,13.5-30.1,30.1c0,16.6,13.5,30.1,30.1,30.1s30.1-13.5,30.1-30.1    C485.4,335.3,471.9,321.8,455.3,321.8z"
         class="st11" /></g><path
       id="path67"
       d="M364.1,305.2c-0.8,0-1.5-0.6-1.6-1.5l-1.1-12.6c-0.1-0.9,0.6-1.7,1.5-1.7c0.8-0.2,1.7,0.6,1.7,1.5l1.1,12.6   c0.1,0.9-0.6,1.7-1.5,1.7C364.2,305.2,364.2,305.2,364.1,305.2z"
       class="st6" /><path
       id="path69"
       d="M415.5,289.4c-0.4,0-0.8-0.2-1.2-0.5l-7-7.2c-0.6-0.6-0.6-1.7,0-2.3c0.6-0.6,1.7-0.6,2.3,0l7,7.2   c0.6,0.6,0.6,1.7,0,2.3C416.3,289.3,415.9,289.4,415.5,289.4z"
       class="st6" /><path
       id="path71"
       d="M411.9,274.8c-0.4,0-0.8-0.2-1.2-0.5l-7-7.2c-0.6-0.6-0.6-1.7,0-2.3c0.7-0.6,1.7-0.6,2.3,0l7,7.2   c0.6,0.6,0.6,1.7,0,2.3C412.8,274.6,412.4,274.8,411.9,274.8z"
       class="st6" /><path
       id="path73"
       d="M433.4,293c-0.4,0-0.8-0.2-1.2-0.5l-7-7.2c-0.6-0.6-0.6-1.7,0-2.3c0.6-0.6,1.7-0.6,2.3,0l7,7.2   c0.6,0.6,0.6,1.7,0,2.3C434.2,292.9,433.8,293,433.4,293z"
       class="st6" /><path
       id="path75"
       d="M446.4,289.4c-0.4,0-0.8-0.2-1.2-0.5l-7-7.2c-0.6-0.6-0.6-1.7,0-2.3c0.7-0.6,1.7-0.6,2.3,0l7,7.2   c0.6,0.6,0.6,1.7,0,2.3C447.2,289.3,446.8,289.4,446.4,289.4z"
       class="st6" /><path
       id="path77"
       d="M382.8,293c-0.7,0-1.3-0.4-1.5-1l-3.6-9.4c-0.3-0.8,0.1-1.8,0.9-2.1c0.8-0.3,1.7,0.1,2.1,0.9l3.6,9.4   c0.3,0.8-0.1,1.8-0.9,2.1C383.2,293,383,293,382.8,293z"
       class="st6" /><path
       id="path79"
       d="M370.9,289.1c-0.7,0-1.3-0.4-1.5-1l-3.6-9.4c-0.3-0.8,0.1-1.8,0.9-2.1c0.8-0.3,1.7,0.1,2.1,0.9l3.6,9.4   c0.3,0.8-0.1,1.8-0.9,2.1C371.3,289.1,371.1,289.1,370.9,289.1z"
       class="st6" /><path
       id="path81"
       d="M393.7,310.9c-0.7,0-1.3-0.4-1.5-1l-3.6-9.4c-0.3-0.8,0.1-1.8,0.9-2.1c0.8-0.4,1.8,0.1,2.1,0.9l3.6,9.4   c0.3,0.8-0.1,1.8-0.9,2.1C394.1,310.9,393.9,310.9,393.7,310.9z"
       class="st6" /><path
       id="path83"
       d="M398.8,327.6c-0.7,0-1.3-0.4-1.5-1l-3.6-9.4c-0.3-0.8,0.1-1.8,0.9-2.1c0.8-0.3,1.8,0.1,2.1,0.9l3.6,9.4   c0.3,0.8-0.1,1.8-0.9,2.1C399.2,327.6,399,327.6,398.8,327.6z"
       class="st6" /><path
       id="path85"
       d="M384.2,334.1c-0.8,0-1.5-0.6-1.6-1.5l-0.7-10c-0.1-0.9,0.6-1.7,1.5-1.7c1.1-0.1,1.7,0.6,1.7,1.5l0.7,10   c0.1,0.9-0.6,1.7-1.5,1.7C384.3,334.1,384.2,334.1,384.2,334.1z"
       class="st6" /><path
       id="path87"
       d="M463.8,311.3c-0.3,0-0.7-0.1-1-0.3l-8.1-6c-0.7-0.5-0.9-1.5-0.3-2.3c0.5-0.7,1.6-0.9,2.3-0.3l8.1,6   c0.7,0.5,0.9,1.5,0.3,2.3C464.8,311,464.3,311.3,463.8,311.3z"
       class="st6" /><path
       id="path89"
       d="M395.2,283.8c-0.5,0-1-0.2-1.3-0.7L388,275c-0.5-0.7-0.4-1.7,0.4-2.2c0.7-0.5,1.7-0.4,2.3,0.4l5.9,8.1   c0.5,0.7,0.4,1.7-0.4,2.2C395.9,283.7,395.5,283.8,395.2,283.8z"
       class="st6" /><path
       id="path91"
       d="M406.7,300.6c-0.5,0-1-0.2-1.3-0.7l-5.9-8.1c-0.5-0.7-0.4-1.7,0.4-2.3c0.7-0.5,1.7-0.4,2.3,0.4l5.9,8.1   c0.5,0.7,0.4,1.7-0.4,2.3C407.3,300.5,407,300.6,406.7,300.6z"
       class="st6" /><path
       id="path93"
       d="M405.1,311.8c-0.6,0-1.1-0.3-1.4-0.8l-2.8-5.1c-0.4-0.8-0.2-1.8,0.6-2.2c0.8-0.4,1.8-0.2,2.2,0.6l2.8,5.1   c0.4,0.8,0.2,1.8-0.6,2.2C405.6,311.7,405.4,311.8,405.1,311.8z"
       class="st6" /><path
       id="path95"
       d="M379.2,310.1c-0.8,0-1.4-0.6-1.6-1.3l-1.7-9.9c-0.2-0.9,0.4-1.7,1.3-1.9c0.8-0.2,1.7,0.4,1.9,1.3l1.7,9.9   c0.2,0.9-0.4,1.7-1.3,1.9C379.4,310.1,379.3,310.1,379.2,310.1z"
       class="st6" /><path
       id="path97"
       d="M380.1,355.1c-0.8,0-1.4-0.6-1.6-1.3l-1.7-9.9c-0.2-0.9,0.4-1.7,1.3-1.9c0.9-0.2,1.7,0.4,1.9,1.3l1.7,9.9   c0.2,0.9-0.4,1.7-1.3,1.9C380.3,355.1,380.2,355.1,380.1,355.1z"
       class="st6" /><path
       id="path99"
       d="M427.8,275.6c-0.4,0-0.8-0.2-1.1-0.5l-6.9-6.9c-0.6-0.6-0.6-1.7,0-2.3c0.6-0.6,1.6-0.6,2.3,0l6.9,6.9   c0.6,0.6,0.6,1.7,0,2.3C428.7,275.5,428.3,275.6,427.8,275.6z"
       class="st6" /><g
       id="g105"
       class="st3"><path
         id="path101"
         d="M418.2,521.7c0,0-32.7,99-30.5,136.1"
         class="st1" /><path
         id="path103"
         d="M387.7,666.3c-4.4,0-8.1-3.5-8.4-7.9c-2.3-38.3,29.6-135.2,31-139.3c1.5-4.4,6.2-6.8,10.6-5.4    c4.4,1.5,6.8,6.2,5.3,10.6c-0.3,1-32.2,97.9-30.1,133c0.3,4.6-3.3,8.6-7.9,8.9C388,666.3,387.9,666.3,387.7,666.3z"
         class="st1" /></g><g
       id="g111"
       class="st3"><path
         id="path107"
         d="M470.5,519.4c0,0-9.5,102.4,1.1,138.5"
         class="st1" /><path
         id="path109"
         d="M471.6,666.3c-3.6,0-7-2.4-8.1-6c-11-37.2-1.8-137.4-1.4-141.6c0.4-4.6,4.5-7.9,9.2-7.6    c4.6,0.4,8,4.5,7.6,9.2c-0.1,1-9.2,101.2,0.8,135.3c1.3,4.5-1.2,9.1-5.7,10.4C473.2,666.2,472.4,666.3,471.6,666.3z"
         class="st1" /></g><path
       id="path113"
       d="M404,244.6l-3.1-7.2c-0.1-0.2-0.3-0.3-0.5-0.2l-13.8,5.9c-11.6-35.4-53.8-41.3-76.6-39.1   c-38.1,0.1-64.9,10.2-79.7,29.8c-15.4,20.5-11.9,44.2-10.3,51.5v359.2h-26.4c-6.6,0-12,5.4-12,12v0c0,6.6,5.4,12,12,12h82.7   c6.6,0,12-5.4,12-12v0c0-6.6-5.4-12-12-12h-28.3V283.8l0-2l-0.5-1.8c0-0.2-4.4-16.7,5.3-29.5c9.2-12.1,29.2-18.4,57.8-18.4l1.5-0.1   c0.4-0.1,41.9-4.1,48.4,22.3l-16.3,7c-0.2,0.1-0.3,0.3-0.2,0.5l3.1,7.2c0.1,0.2,0.3,0.3,0.5,0.2l38.5-16.5l2.7-0.4   c0-0.2-0.1-0.4-0.1-0.7l15.1-6.5C404,245,404.1,244.8,404,244.6z"
       class="st10" /></g><g
     class="st2"
     id="Calque_6"><path
       id="path116"
       d="M211.6,337c-28.4,0-51.5-24.1-51.5-53.6s23.1-53.6,51.5-53.6c28.4,0,51.5,24.1,51.5,53.6S240.1,337,211.6,337z    M211.6,249.2c-17.4,0-31.5,15.3-31.5,34.1c0,18.8,14.1,34.1,31.5,34.1s31.5-15.3,31.5-34.1C243.1,264.5,229,249.2,211.6,249.2z"
       class="st7" /><circle
       id="circle118"
       r="40"
       cy="284.1"
       cx="211.6"
       class="st7" /><g
       id="g124"
       class="st3"><path
         id="path120"
         d="M254.3,479.8c0,0,37.7,114,35.2,156.8"
         class="st1" /><path
         id="path122"
         d="M289.5,646.2c-0.2,0-0.4,0-0.6,0c-5.3-0.3-9.4-4.9-9.1-10.2c2.4-40.4-34.3-152.1-34.7-153.2    c-1.7-5.1,1.1-10.6,6.2-12.2c5.1-1.7,10.6,1.1,12.2,6.2c1.6,4.7,38.3,116.3,35.7,160.4C298.9,642.3,294.6,646.2,289.5,646.2z"
         class="st1" /></g><g
       id="g130"
       class="st3"><path
         id="path126"
         d="M194.1,477.1c0,0,11,117.9-1.3,159.5"
         class="st1" /><path
         id="path128"
         d="M192.8,646.2c-0.9,0-1.8-0.1-2.7-0.4c-5.1-1.5-8.1-6.9-6.6-12c11.6-39.4,1-154.7,0.9-155.9    c-0.5-5.3,3.4-10.1,8.8-10.5c5.4-0.3,10.1,3.4,10.5,8.8c0.5,4.9,11,120.2-1.6,163.1C200.9,643.5,197,646.2,192.8,646.2z"
         class="st1" /></g><path
       id="path132"
       d="M602.9,589h-186c-2.7,0-5-2.1-5.4-4.8l-12.9-111.8c-0.2-1.5,0.3-3.1,1.3-4.2s2.5-1.8,4-1.8h228.8   c2.7,0,5,2.1,5.4,4.8c0.4,3.3,9.1,81.6-14.7,108.3C617.9,585.8,611,589,602.9,589z M421.7,578.2h181.2c4.9,0,9-1.9,12.5-5.8   c16-17.9,14.7-70.9,12.5-95.2H410L421.7,578.2z"
       class="st6" /><path
       id="path134"
       d="M446.8,584.9c-1.5,0-2.7-1.2-2.7-2.7V471.8c0-1.5,1.2-2.7,2.7-2.7c1.5,0,2.7,1.2,2.7,2.7v110.4   C449.5,583.7,448.3,584.9,446.8,584.9z"
       class="st6" /><path
       id="path136"
       d="M631.9,514.6H413.1c-1.5,0-2.7-1.2-2.7-2.7c0-1.5,1.2-2.7,2.7-2.7h218.8c1.5,0,2.7,1.2,2.7,2.7   C634.6,513.4,633.4,514.6,631.9,514.6z"
       class="st6" /><path
       id="path138"
       d="M629.8,493.1H411c-1.5,0-2.7-1.2-2.7-2.7s1.2-2.7,2.7-2.7h218.8c1.5,0,2.7,1.2,2.7,2.7   S631.3,493.1,629.8,493.1z"
       class="st6" /><path
       id="path140"
       d="M629.7,539.4H415.1c-1.5,0-2.7-1.2-2.7-2.7s1.2-2.7,2.7-2.7h214.7c1.5,0,2.7,1.2,2.7,2.7   S631.2,539.4,629.7,539.4z"
       class="st6" /><path
       id="path142"
       d="M625.8,564.1H415.1c-1.5,0-2.7-1.2-2.7-2.7s1.2-2.7,2.7-2.7h210.7c1.5,0,2.7,1.2,2.7,2.7   S627.3,564.1,625.8,564.1z"
       class="st6" /><path
       id="path144"
       d="M479.3,585.6c-1.5,0-2.7-1.2-2.7-2.7V472.5c0-1.5,1.2-2.7,2.7-2.7c1.5,0,2.7,1.2,2.7,2.7v110.4   C482,584.4,480.7,585.6,479.3,585.6z"
       class="st6" /><path
       id="path146"
       d="M507.5,584.9c-1.5,0-2.7-1.2-2.7-2.7V471.8c0-1.5,1.2-2.7,2.7-2.7s2.7,1.2,2.7,2.7v110.4   C510.2,583.7,509,584.9,507.5,584.9z"
       class="st6" /><path
       id="path148"
       d="M540.6,584.9c-1.5,0-2.7-1.2-2.7-2.7V471.8c0-1.5,1.2-2.7,2.7-2.7s2.7,1.2,2.7,2.7v110.4   C543.3,583.7,542.1,584.9,540.6,584.9z"
       class="st6" /><path
       id="path150"
       d="M573.7,584.9c-1.5,0-2.7-1.2-2.7-2.7V471.8c0-1.5,1.2-2.7,2.7-2.7s2.7,1.2,2.7,2.7v110.4   C576.4,583.7,575.2,584.9,573.7,584.9z"
       class="st6" /><path
       id="path152"
       d="M606.4,585.6c-1.5,0-2.7-1.2-2.7-2.7V472.5c0-1.5,1.2-2.7,2.7-2.7s2.7,1.2,2.7,2.7v110.4   C609.1,584.4,607.9,585.6,606.4,585.6z"
       class="st6" /><path
       id="path154"
       d="M591.5,610C591.4,610,591.4,610,591.5,610l-172.4-1.1c-2.7,0-5-2-5.3-4.7l-17.7-134.3l-7.5-34.6h-43.7   c-3,0-5.4-2.4-5.4-5.4s2.4-5.4,5.4-5.4h48c2.5,0,4.7,1.8,5.3,4.2l8.5,39.3l17.1,130.1l167.6,1.1c3,0,5.4,2.4,5.4,5.4   C596.8,607.6,594.4,610,591.5,610z"
       class="st6" /><circle
       id="circle156"
       r="20.2"
       cy="628.8"
       cx="442.7"
       class="st6" /><circle
       id="circle158"
       r="20.2"
       cy="628.8"
       cx="560.8"
       class="st6" /><path
       id="path160"
       d="M148.3,505.2c-0.1,0-0.2,0-0.3,0c-5.9-0.2-10.6-5.1-10.5-11.1c0.1-5.6,4.5-137.7,77.9-137.7c0.2,0,0.4,0,0.6,0   c71.6,0.7,85.8,49.3,86.3,51.3c0.2,0.6,0.3,1.2,0.3,1.9c0.5,0.7,5.6,5.4,21.4,6.1c5.9,0.3,10.5,5.3,10.3,11.2   c-0.3,6-5.3,10.7-11.2,10.3c-34-1.5-40.4-18.4-41.6-24c-1.2-3.5-13-34.7-65.7-35.2c-52.3-0.3-56.7,115.6-56.8,116.7   C158.9,500.6,154.1,505.2,148.3,505.2z"
       class="st6" /></g><g
     class="st2"
     id="Calque_7"><path
       id="path163"
       d="M537.9,346.7H274.1c-5.8,0-10.4,5-10.4,11.3v195.4c0,6.2,4.7,11.3,10.4,11.3h263.8c5.8,0,10.4-5,10.4-11.3V358   C548.4,351.8,543.7,346.7,537.9,346.7z M512.5,369.3L406,457.5l-106.5-88.2H512.5z M284.6,542.1V385.3l115.1,95.3   c1.9,1.6,4.1,2.3,6.4,2.3c2.2,0,4.5-0.8,6.4-2.3l115.1-95.3v156.7H284.6z"
       class="st6" /></g><g
     class="st2"
     id="Calque_8"><g
       id="g168"
       class="st3"><path
         id="path166"
         d="M400.6,501.3c-3.9,0-7.2-3.3-7.8-8.1l-3.3-33.6c-0.6-5.7,3-9.9,8.7-10.5c31.8-2.4,51.8-16.5,51.8-41.7V407    c0-21.6-16.8-39-43.8-39c-20.1,0-36,8.7-49.4,23.4c-2.1,1.8-4.8,3.3-8.1,3.3c-6,0-10.8-4.5-10.8-10.5c0-2.7,1.2-5.7,3.6-8.1    c15.9-17.4,36.3-29.4,65.3-29.4c40.5,0,67.1,25.2,67.1,59.3v0.6c0,37.5-28.2,56-62.3,60.8l-2.1,25.8c-0.6,4.8-3.6,8.1-7.8,8.1    H400.6z M400.9,526.2c8.1,0,14.4,6,14.4,14.1v6c0,8.1-6.3,14.4-14.4,14.4c-8.1,0-14.4-6.3-14.4-14.4v-6    C386.5,532.2,392.8,526.2,400.9,526.2z"
         class="st1" /></g></g><g
     id="Calque_9"><path
       id="path171"
       d="M311.6,581.8c-6.7,0-12.3-4.8-12.5-10.9c-0.1-3.5-2.3-86.7,39.2-125.1c14-12.9,31.2-19.5,51.2-19.5   c92.8,0,105.5,137.5,106,143.4c0.5,6.2-4.6,11.5-11.5,12c-6.8,0.5-12.9-4.1-13.4-10.3c-0.1-1.2-11.3-122.7-81.1-122.7   c-13.2,0-24.1,4.1-33.3,12.7c-28.5,26.3-32.9,87.5-32.2,108.8c0.2,6.2-5.2,11.3-12.1,11.5C311.8,581.8,311.7,581.8,311.6,581.8z"
       class="st1" /><path
       id="path173"
       d="M378.9,406.6c-35.4,0-64.2-30-64.2-66.8s28.8-66.8,64.2-66.8c35.4,0,64.2,30,64.2,66.8   S414.3,406.6,378.9,406.6z M378.9,297.3c-21.6,0-39.2,19.1-39.2,42.5s17.6,42.5,39.2,42.5c21.6,0,39.2-19.1,39.2-42.5   S400.5,297.3,378.9,297.3z"
       class="st1" /></g></svg>