<?xml version="1.0" encoding="UTF-8" standalone="no"?>
<svg
   xmlns:dc="http://purl.org/dc/elements/1.1/"
   xmlns:cc="http://creativecommons.org/ns#"
   xmlns:rdf="http://www.w3.org/1999/02/22-rdf-syntax-ns#"
   xmlns:svg="http://www.w3.org/2000/svg"
   xmlns="http://www.w3.org/2000/svg"
   xmlns:xlink="http://www.w3.org/1999/xlink"
   id="svg53"
   xml:space="preserve"
   style="enable-background:new 0 0 800 800;"
   viewBox="0 0 800 800"
   y="0px"
   x="0px"
   version="1.1"><metadata
     id="metadata59"><rdf:RDF><cc:Work
         rdf:about=""><dc:format>image/svg+xml</dc:format><dc:type
           rdf:resource="http://purl.org/dc/dcmitype/StillImage" /></cc:Work></rdf:RDF></metadata><defs
     id="defs57" /><style
     id="style2"
     type="text/css">
	.st0{fill:none;}
	.st1{fill:#4ABBBD;}
	.st2{display:none;}
	.st3{display:inline;}
	.st4{fill:#44BABC;}
	.st5{fill:#FFFFFF;}
	.st6{display:inline;fill:#4ABBBD;}
	.st7{display:inline;fill:#4ABBBD;stroke:#4BBBBC;stroke-miterlimit:10;}
	.st8{display:inline;fill:url(#SVGID_1_);}
	.st9{display:inline;fill:url(#SVGID_2_);}
	.st10{fill:#4BBBBC;}
</style><pattern
     style="overflow:visible;"
     viewBox="0 -32.7 30.7 32.7"
     id="Nouvelle_nuance_de_motif_1"
     patternUnits="userSpaceOnUse"
     height="32.7"
     width="30.7"><g
       id="g8"><rect
         id="rect4"
         height="32.7"
         width="30.7"
         class="st0"
         y="-32.7" /><rect
         id="rect6"
         height="32.7"
         width="30.7"
         class="st1"
         y="-32.7"
         x="0" /></g></pattern><g
     class="st2"
     id="Calque_1"><g
       id="g15"
       class="st3"><path
         id="path11"
         d="M371.2,115.1c-76.6,0-138.7,50.7-138.7,113.3c0,40.2,25.6,75.4,64.3,95.6l-5.7,50.9l62.8-34.1    c5.7,0.6,11.5,0.9,17.4,0.9c76.6,0,138.7-50.7,138.7-113.3S447.9,115.1,371.2,115.1z"
         class="st4" /><path
         id="path13"
         d="M291.1,381.9c-1.4,0-2.8-0.4-3.9-1.2c-2.2-1.5-3.4-4-3.1-6.7l5.2-46.2c-40-22.5-63.8-59.4-63.8-99.5    c0-66.4,65.4-120.3,145.8-120.3c80.4,0,145.8,54,145.8,120.3s-65.4,120.3-145.8,120.3c-5.1,0-10.5-0.3-15.9-0.7L294.4,381    C293.4,381.6,292.2,381.9,291.1,381.9z M371.2,122.1c-72.6,0-131.6,47.6-131.6,106.2c0,36.2,22.6,69.6,60.5,89.3    c2.6,1.4,4.1,4.2,3.8,7.1l-4.2,37.4l50.9-27.7c1.3-0.7,2.7-1,4.1-0.8c5.7,0.6,11.3,0.9,16.7,0.9c72.6,0,131.6-47.6,131.6-106.2    C502.9,169.8,443.8,122.1,371.2,122.1z"
         class="st5" /></g><g
       id="g21"
       class="st3"><path
         id="path17"
         d="M543.6,300.8c0-30.9-30.6-55.9-68.4-55.9s-68.4,25-68.4,55.9s30.6,55.9,68.4,55.9c2.9,0,5.8-0.2,8.6-0.5    l31,16.8l-2.8-25.1C531,338,543.6,320.6,543.6,300.8z"
         class="st4" /><path
         id="path19"
         d="M514.7,380.1c-1.2,0-2.3-0.3-3.4-0.9l-29.1-15.8c-2.4,0.2-4.8,0.3-7.1,0.3c-41.6,0-75.5-28.2-75.5-62.9    s33.9-62.9,75.5-62.9s75.5,28.2,75.5,62.9c0,20.4-11.6,39.2-31.2,51l2.3,20.5c0.3,2.6-0.9,5.2-3.1,6.7    C517.5,379.7,516.1,380.1,514.7,380.1z M483.8,349.2c1.2,0,2.3,0.3,3.4,0.9l19,10.4l-1.3-11.6c-0.3-2.9,1.2-5.7,3.8-7.1    c17.5-9.1,27.9-24.4,27.9-40.9c0-26.9-27.5-48.8-61.3-48.8s-61.3,21.9-61.3,48.8c0,26.9,27.5,48.8,61.3,48.8    c2.5,0,5.1-0.1,7.9-0.4C483.3,349.2,483.5,349.2,483.8,349.2z"
         class="st5" /></g><path
       id="path23"
       d="M108.3,643.4c-7.6,0-13.8-5.4-14-12.2c-0.1-4-2.6-97.8,44.2-141c15.8-14.6,35.2-21.9,57.7-21.9   c104.6,0,119,155,119.5,161.6c0.6,6.9-5.2,13-13,13.5c-7.6,0.5-14.5-4.7-15.1-11.6c-0.1-1.4-12.8-138.3-91.5-138.3   c-14.9,0-27.1,4.7-37.6,14.3c-32.1,29.6-37.1,98.6-36.3,122.7c0.2,7-5.9,12.8-13.6,13C108.6,643.4,108.4,643.4,108.3,643.4z"
       class="st6" /><path
       id="path25"
       d="M184.1,445.9c-39.9,0-72.3-33.8-72.3-75.3s32.5-75.3,72.3-75.3c39.9,0,72.4,33.8,72.4,75.3   S224,445.9,184.1,445.9z M184.1,322.7c-24.4,0-44.2,21.5-44.2,47.9c0,26.4,19.8,47.9,44.2,47.9s44.2-21.5,44.2-47.9   C228.4,344.2,208.5,322.7,184.1,322.7z"
       class="st7" /><path
       id="path27"
       d="M691.7,642.3c7.6,0,13.8-5.4,14-12.2c0.1-4,2.6-97.8-44.2-141c-15.8-14.6-35.2-21.9-57.7-21.9   c-104.6,0-119,155-119.5,161.6c-0.6,6.9,5.2,13,13,13.5c7.6,0.5,14.5-4.7,15.1-11.6c0.1-1.4,12.8-138.3,91.5-138.3   c14.9,0,27.1,4.7,37.6,14.3c32.1,29.6,37.1,98.6,36.3,122.7c-0.2,7,5.9,12.8,13.6,13C691.4,642.3,691.6,642.3,691.7,642.3z"
       class="st6" /><path
       id="path29"
       d="M543.5,369.5c0-41.5,32.5-75.3,72.4-75.3c39.9,0,72.3,33.8,72.3,75.3s-32.5,75.3-72.3,75.3   C576,444.8,543.5,411,543.5,369.5z M571.6,369.5c0,26.4,19.8,47.9,44.2,47.9c24.4,0,44.2-21.5,44.2-47.9s-19.8-47.9-44.2-47.9   C591.5,321.6,571.6,343.1,571.6,369.5z"
       class="st7" /><circle
       id="circle31"
       r="56.2"
       cy="373.1"
       cx="184.1"
       class="st7" /><circle
       id="circle33"
       r="56.2"
       cy="370.6"
       cx="615.9"
       class="st7" /></g><g
     class="st2"
     id="Calque_2"><path
       id="path36"
       d="M406.8,627.9c-4.8,0-9.7-1.8-13.4-5.5l-149-146.6c-3-3-6.2-5.9-9.3-8.9c-17.5-16.5-37.2-35.2-45.2-62.6   c-6.2-21.2-7.1-44.4-2.5-67.1c7.8-38.8,33.4-76,65.3-94.8c22.4-13.2,49.9-15.8,71.5-16.6c20.2-0.7,38.2,2.4,53.5,9.3   c8.2,3.7,19.5,10.4,29.2,19.5c9.6-9.1,21-15.9,29.2-19.5c15.3-6.9,33.3-10,53.5-9.3c21.5,0.8,49.1,3.4,71.5,16.6   c31.9,18.8,57.5,56,65.3,94.8c4.5,22.7,3.7,45.8-2.5,67.1c-8,27.4-27.8,46.1-45.2,62.6c-3.1,3-6.3,5.9-9.3,8.9l-149,146.6   C416.4,626,411.6,627.9,406.8,627.9z M329.9,263.8c-1.4,0-2.9,0-4.4,0.1c-17,0.6-38.5,2.5-53.5,11.3   c-22.6,13.4-41.6,41.3-47.3,69.5c-3.3,16.6-2.7,33.5,1.8,48.9c5.1,17.5,19.5,31.2,34.8,45.6c3.3,3.1,6.6,6.3,9.8,9.4L406.8,582   l135.6-133.4c3.2-3.2,6.5-6.3,9.9-9.4c15.3-14.4,29.7-28.1,34.8-45.6c4.5-15.3,5.1-32.2,1.8-48.9c-5.6-28.2-24.6-56.1-47.3-69.4   c-15-8.8-36.4-10.7-53.5-11.3c-14.3-0.6-26.5,1.5-36.5,5.9c-12.8,5.8-25.2,17.5-25.9,22.6c-1.3,9.4-9.4,16.4-18.9,16.4c0,0,0,0,0,0   c-9.5,0-17.6-7-18.9-16.5c-0.7-5.2-13-16.8-25.9-22.6C353.1,265.8,342.3,263.8,329.9,263.8z"
       class="st6" /><polygon
       id="polygon38"
       points="387.9,521.5 362.9,451.4 330.2,451.4 315.1,410.9 303.1,451.4 248.8,451.4 248.8,435.8 291.5,435.8    313.3,361.7 341.1,435.8 373.9,435.8 388.6,477.1 423.4,388.7 451.2,447.6 471.6,447.6 471.6,463.2 441.3,463.2 424.7,428.1  "
       class="st6" /></g><g
     class="st2"
     id="Calque_3"><pattern
       patternTransform="matrix(1 0 0 1 -13.6667 -21.3333)"
       xlink:href="#Nouvelle_nuance_de_motif_1"
       id="SVGID_1_" /><path
       id="path42"
       d="M544.1,589.5L357.9,403.4c35.6-44.1,23.4-80.6,10.1-95.3l-84.7-84.7c-6.9-6.9-17.9-6.9-24.8,0   c-6.9,6.9-6.9,17.9,0,24.8l83.8,83.7c1.5,1.9,12.7,17.8-9.3,46.5L230.7,276.1c-6.9-6.9-17.9-6.9-24.8,0s-6.9,17.9,0,24.8   l102.3,102.3c-28.8,22.1-44.5,11-45.5,10.3L178,328.9c-6.9-6.9-17.9-6.9-24.8,0c-6.9,6.9-6.9,17.9,0,24.8l85.3,85.3   c7.2,6.5,20.1,12.8,36.8,12.8c16.3,0,36.1-6,57.8-23.5l186.1,186.1c3.4,3.4,7.9,5.1,12.4,5.1s9-1.7,12.4-5.1   C550.9,607.5,550.9,596.4,544.1,589.5z"
       class="st8" /><pattern
       patternTransform="matrix(1 0 0 1 -13.6667 -21.3333)"
       xlink:href="#Nouvelle_nuance_de_motif_1"
       id="SVGID_2_" /><path
       id="path45"
       d="M558.4,194.1L405,432.5l0.5,0.3l-97,150.9c-7.9,12.2-4.3,28.5,7.9,36.4c4.4,2.8,9.3,4.2,14.2,4.2   c8.6,0,17.1-4.3,22.1-12.1l97.1-150.9l21.7,13.9C471.4,475.2,629.8,232.9,558.4,194.1z"
       class="st9" /></g><g
     id="Calque_4"><path
       id="path48"
       d="M524.4,619.5c-1.7,0-3.3-0.4-4.9-1.2c-16.7-9-31.1-34.8-37.2-47.1c-22.3,0.7-93.4,2.6-133.2-0.3   c-45.5-3.2-106.6-36.8-116-42.1l-15.9-4.4c-3.4-1-6.1-3.6-7.1-7.1l-2.9-10l-3.5-16.4c-0.1-0.4-0.1-0.8-0.2-1.2   c-0.1-1.5-3.4-36.7,0.1-61.8c3.3-23.8,32.8-113.2,36.7-124.9l6.9-73.9c0.4-4,3-7.4,6.8-8.7l35.1-12.4c1.1-0.4,2.3-0.6,3.4-0.6h28.7   c1.5,0,3,0.3,4.4,1l26.1,12.4c2.2,1,3.9,2.8,4.9,4.9c1.1,2.3,10.3,23.2,1,39.1c-3.6,6.1-11.3,13.6-27.5,14.8   c-7.1,0.5-12,2.6-14.4,6.1c-3.7,5.4-2,14.3-1.4,16.4c0.3,1,0.5,2,0.5,3l0.3,74c2.3,11.3,1.5,29.8,0,46.2   c12.4-8.1,34.9-8.8,60.3-9.6c15.5-0.5,33-1.1,40.3-3.9c19.3-7.6,53.6-6.4,67.9-5.5c1.4-2.3,3.5-5.7,6.3-10.6   c10.2-17.8,32.8-19.8,33.8-19.9c2.9-0.2,5.7,0.7,7.8,2.7c2.1,1.9,3.3,4.7,3.3,7.5v223.1c0,3.6-1.9,7-5,8.8   C528.1,619,526.2,619.5,524.4,619.5z M488.7,550.4c4,0,7.7,2.4,9.4,6.1c3.5,7.8,9.4,18.9,16,28.1V399.9c-2.6,1.4-5,3.4-6.5,6.1   c-7.5,13.1-10.3,16.8-11,17.6c-2.2,2.6-5.4,4-8.8,3.7c-12.5-1.1-48.6-2.6-64.7,3.7c-10.6,4.2-28.4,4.7-47.2,5.3   c-16,0.5-45.9,1.5-50.3,6.8c-0.2,0.4-0.4,0.6-0.7,1l-16.2,19.7c-2.9,3.6-7.9,4.8-12.1,2.9c-4.2-1.9-6.7-6.4-6-10.9   c2.3-15.2,7.6-57.9,4.1-73c-0.2-0.8-0.3-1.5-0.3-2.3l-0.3-73.7c-1.3-5.1-3.9-20.1,4.5-32.4c4.2-6.1,12.8-13.7,29.8-15   c5.9-0.4,9.7-2,11.3-4.7c2.5-4.2,1-11.8-0.7-16.9l-20.3-9.7h-24.6l-27.2,9.6l-6.4,68.6c-0.1,0.8-0.2,1.6-0.5,2.3   C251,336,226.6,411.7,224,430.8c-2.9,21.2-0.4,52,0,56.5l4.3,18.9l11.6,3.2c0.8,0.2,1.6,0.6,2.4,1c0.6,0.4,64.7,36.9,108.3,40   c45.5,3.2,136.9,0,137.8,0C488.5,550.4,488.6,550.4,488.7,550.4z M250.4,305.3h0.1H250.4z"
       class="st10" /><path
       id="path50"
       d="M404.8,487.4c-30.8,0-61.4-15.7-62.7-16.4c-5-2.6-7-8.8-4.4-13.8c2.6-5,8.8-7,13.8-4.4   c0.3,0.2,28.5,14.6,54.7,14.1c26.6-0.6,63.1-18.6,63.5-18.8c5.1-2.5,11.2-0.5,13.8,4.6c2.5,5.1,0.5,11.2-4.6,13.8   c-1.7,0.8-41.1,20.3-72.2,21C406,487.4,405.4,487.4,404.8,487.4z"
       class="st10" /></g></svg>